<svg xmlns="http://www.w3.org/2000/svg" xmlns:xlink="http://www.w3.org/1999/xlink" viewBox="0 0 365.82 160.93"><defs><style>.cls-1{fill:#231815;}.cls-2{fill:none;stroke-linecap:square;stroke-linejoin:round;stroke-width:11px;stroke:url(#橙色_黄色);}</style><linearGradient id="橙色_黄色" x1="83.54" y1="445.23" x2="449.35" y2="445.23" gradientUnits="userSpaceOnUse"><stop offset="0" stop-color="#fff21f"/><stop offset="0.01" stop-color="#ffef1c"/><stop offset="0.1" stop-color="#fddc0d"/><stop offset="0.19" stop-color="#fcd103"/><stop offset="0.28" stop-color="#fccd00"/><stop offset="0.67" stop-color="#f1942e"/><stop offset="0.89" stop-color="#ea652d"/><stop offset="1" stop-color="#e5352b"/></linearGradient></defs><title>jinglongxianrui</title><g id="图层_1" data-name="图层 1"><path class="cls-1" d="M166.86,377.3q-9.5,13.68-19.22,20.59A12.62,12.62,0,0,0,150,398h23.54l2.59-3.24c.43-.52.77-.79,1-.79s1.7.92,4,2.74,3.38,2.87,3.38,3.13-.5.4-1.51.4H168.45v11h12.6l2.81-3.88c.52-.77,1-1.16,1.44-1.16s1.74,1,3.92,2.92,3.28,3.13,3.28,3.56-.39.65-1.16.65H168.45v18.51h3A90.49,90.49,0,0,0,179,415c3,1.69,5,2.86,6,3.53s1.48,1.22,1.48,1.62-.35.64-1,.69a3,3,0,0,0-1.69.57,10.15,10.15,0,0,0-1.58,1.73,77.69,77.69,0,0,1-7.49,8.79h10.44l4.1-4.9a1.56,1.56,0,0,1,1.08-.72,1.89,1.89,0,0,1,1.16.57c.43.39,1.21,1.19,2.34,2.42s2,2.17,2.55,2.84a2.89,2.89,0,0,1,.87,1.55q0,.54-1.08.54H138.57a8.4,8.4,0,0,0-3,.43l-1.29-3.1a15.69,15.69,0,0,0,3.6.37h23.9V413.37h-18.5a8.87,8.87,0,0,0-3,.5l-1.29-2.95a15.74,15.74,0,0,0,3.6.36h19.22v-11h-11a8.4,8.4,0,0,0-3,.43l-.93-2.16a87.41,87.41,0,0,1-14.19,8.21l-.93-1.52q11.73-7.62,18.21-15a85.48,85.48,0,0,0,12.31-19.55q8.28,2.67,8.28,3.75c0,.38-.27.67-.82.86a8.46,8.46,0,0,0-1.55.72q11.44,17,32.76,20.88v1.59a12.29,12.29,0,0,0-4.75.72,6.91,6.91,0,0,0-3,2.73c-.24.39-.5.58-.79.58-.57,0-2.61-1.05-6.12-3.13a50.36,50.36,0,0,1-10.76-9A45.83,45.83,0,0,1,166.86,377.3Zm-22.32,38.45a39.45,39.45,0,0,1,8.07,4.82q2.65,2.24,2.66,4.57a6.8,6.8,0,0,1-1.58,4.32c-1.06,1.32-2.05,2-3,2s-1.55-.91-1.84-2.73a28.19,28.19,0,0,0-5-11.88Z" transform="translate(-83.54 -354.86)"/></g><g id="图层_3" data-name="图层 3"><path class="cls-1" d="M266.91,379.77h8.52l.57-9.46H261.27a11,11,0,0,0-4,.58l-1.92-3.49a23.75,23.75,0,0,0,4.79.42H276.2l.28-5.48c.19-4,.26-6.53.19-7.48,5,1.06,8.09,1.8,9.34,2.25s1.86.92,1.86,1.45-1.15,1.2-3.44,2l-.58,7.23h9.76l3.07-4a2.1,2.1,0,0,1,1.57-.91c.55,0,2.06.95,4.55,2.86s3.73,3.14,3.73,3.7-.86.83-2.58.83H283.66l-.67,9.46H293.8l2.4-2.91a1.31,1.31,0,0,1,.95-.58,13.21,13.21,0,0,1,3.16,1.46c1.79,1,2.92,1.6,3.4,1.91s.72.63.72,1-.9,1-2.68,2V419a8.68,8.68,0,0,1-1.1,4.94,10,10,0,0,1-3.83,2.86,11.07,11.07,0,0,1-3.64,1.33c-.6,0-1-.36-1.1-1.08a4.71,4.71,0,0,0-2.25-3.53,18.48,18.48,0,0,0-5.88-1.87l.38-1.91a70.29,70.29,0,0,0,7.37.67,4.08,4.08,0,0,0,2.58-.54,2.46,2.46,0,0,0,.58-1.87V382.43H266.34v44a1.17,1.17,0,0,1-.19.74,6.26,6.26,0,0,1-1.53.92,20.9,20.9,0,0,1-2.92,1.16,9,9,0,0,1-2.2.5c-.42,0-.62-.23-.62-.67l.47-7.47q.28-4.73.29-8.14V384.09q0-4.32-.19-7.56A61.27,61.27,0,0,1,266.91,379.77Zm9.29,20.42h-3.35a12.75,12.75,0,0,0-4,.5l-1.73-3a23.75,23.75,0,0,0,4.79.42h13.78l1.53-2.58c.32-.55.65-.83,1-.83s1.32.72,2.92,2.16,2.39,2.35,2.39,2.74-.58.58-1.73.58h-8.7v7.47h2.39l2.3-2.57a1.77,1.77,0,0,1,1.19-.75c.35,0,1.37.74,3.06,2.2s2.54,2.42,2.54,2.87-.54.66-1.63.66h-9.85v6.64c0,2.83,0,4.79.09,5.9l.1,3.15c0,.39-.26.72-.77,1a20.64,20.64,0,0,1-3,1.12,13.2,13.2,0,0,1-2.92.7c-.45,0-.67-.15-.67-.45s0-1.32.14-3,.15-4.51.15-8.39v-6.64h-3.93a12.84,12.84,0,0,0-4,.5l-1.72-3.32a23.75,23.75,0,0,0,4.79.41h4.88Zm-6.32-16.27a53.71,53.71,0,0,1,6.6,4.53,3.88,3.88,0,0,1,1.63,2.69A5.35,5.35,0,0,1,277,394a3.22,3.22,0,0,1-2.73,1.62,1,1,0,0,1-.81-.54,9.92,9.92,0,0,1-.81-2.45,17.35,17.35,0,0,0-4.22-7.47Zm14-.58a41.19,41.19,0,0,1,5.36,2.28c1.28.7,1.92,1.14,1.92,1.33s-.36.37-1.06.54a6.61,6.61,0,0,0-2.77,2.24L281.08,397l-1.53-.66A110.4,110.4,0,0,0,283.85,383.34Zm35.6,2.41q-1.53,22-5.88,31.42T296,433.81l-1.34-1.49a43.52,43.52,0,0,0,13.39-17.39,59.26,59.26,0,0,0,4.6-23.87c0-1.71-.07-3.49-.2-5.31h-2.29a12.55,12.55,0,0,0-4,.5l-1.72-3.66a23.65,23.65,0,0,0,4.78.42h3.35q.29-10,.29-16.61c0-4.42-.07-8.1-.19-11q8.89,2.08,10.09,2.49t1.2,1c0,.36-.4.73-1.2,1.12a4.13,4.13,0,0,0-1.62,1.2c-.29.42-.47,1.73-.53,3.95L319.74,383h8.8l3.06-3.9a2.67,2.67,0,0,1,2.06-1.25q1.09,0,4.5,3.24c2.26,2.16,3.4,3.47,3.4,3.94s-.64.71-1.92.71H322.71q3.06,17.52,7.41,26.89a27.57,27.57,0,0,0,13.26,13.7l-.48,1.25c-.83-.06-1.79-.09-2.87-.09a11.66,11.66,0,0,0-3.31.5,7.69,7.69,0,0,0-2.91,1.58,3.64,3.64,0,0,1-1.82,1.08,1.73,1.73,0,0,1-1.2-.66,45.68,45.68,0,0,1-3.25-5.73,42.09,42.09,0,0,1-3.88-12.37q-1.25-7.31-3-26.15Zm4.79-23.33a51,51,0,0,1,8.61,4.94c1.91,1.47,2.87,2.79,2.87,4a6.23,6.23,0,0,1-1.58,3.78c-1.05,1.33-2.06,2-3,2-1.15,0-1.92-1-2.3-3a21.19,21.19,0,0,0-5.93-10.29Z" transform="translate(-83.54 -354.86)"/></g><g id="图层_5" data-name="图层 5"><path class="cls-2" d="M90.57,403.74s94.22-34,115.57,4.93,34.16,71.77,84.26,80.53-6.55-60,15.37-78.89S396,497.42,443.55,500.16" transform="translate(-83.54 -354.86)"/></g><g id="图层_2" data-name="图层 2"><path class="cls-1" d="M223.55,445.53h-7.71Q212.38,475,202,489.88t-33.75,25.91L167,513.37a86.93,86.93,0,0,0,17.22-13.76A71.52,71.52,0,0,0,196.08,483a70.36,70.36,0,0,0,6.45-17.34q1.78-8.28,3.17-20.15H177a11.83,11.83,0,0,0-4.84.8l-2.07-5.3a24.73,24.73,0,0,0,5.75.58H206q1.16-11.62,1.16-19.52T207,409.93q8.75,1.62,12.95,2.88t4.21,2.19c0,.62-.6,1.25-1.79,1.9a7.11,7.11,0,0,0-2.3,1.73,10.41,10.41,0,0,0-1,3.51l-2.65,19.47h36.75l5.53-7.49a2.78,2.78,0,0,1,2.07-1.38,5.22,5.22,0,0,1,2.82,1.44c1.19,1,2.77,2.38,4.72,4.26s3.34,3.27,4.15,4.15a3.67,3.67,0,0,1,1.21,2.13c0,.54-.88.81-2.65.81H233.23v29.72a183.62,183.62,0,0,0,19-22.93q5.53,3.81,8.07,5.82c1.69,1.34,2.53,2.27,2.53,2.76s-.57.79-1.73.87a7.5,7.5,0,0,0-2.76.63,10.19,10.19,0,0,0-2.42,1.9,274.22,274.22,0,0,1-22.69,21.08v13.13q0,4.5.81,5.13t5.7,1q4.89.35,8.75.34a53.82,53.82,0,0,0,7.49-.51,17.38,17.38,0,0,0,4.43-1,4.6,4.6,0,0,0,1.56-1.85,17,17,0,0,0,1.38-4c.42-1.76.84-4.13,1.27-7.08s.9-6.7,1.44-11.23h2.65q-.12,3.92-.12,8.75a38.37,38.37,0,0,0,.81,8.41,6.43,6.43,0,0,0,3.68,4.84c1.16.53,1.73,1.25,1.73,2.13s-1,2.59-2.88,5.13-4,4-6.28,4.54-7.31.75-15.14.75-13.79-.17-17.86-.51-6.6-1.16-7.6-2.42-1.5-3.82-1.5-7.66V492.52a140.12,140.12,0,0,1-30.41,15.9L191.65,506a139.52,139.52,0,0,0,31.9-21.65Zm6.22-29.26q12,3.35,15.55,5.13a22.81,22.81,0,0,1,5.24,3.34,6,6,0,0,1,1.67,4.66,9.55,9.55,0,0,1-1.78,5.64q-1.78,2.54-3.63,2.54t-3.8-3.69q-4.5-8.52-14.28-15.2Z" transform="translate(-83.54 -354.86)"/></g><g id="图层_4" data-name="图层 4"><path class="cls-1" d="M328.09,438.12h-7.6a10.43,10.43,0,0,0-3.76.54l-1.61-3.76a19.52,19.52,0,0,0,4.48.45h17.26l2.95-4a1.94,1.94,0,0,1,1.44-1c.47,0,1.86,1,4.15,3.13s3.45,3.38,3.45,3.89-.72.76-2.15.76H335.34v20.93h2.06l3-3.4c.66-.71,1.13-1.07,1.43-1.07s.9.48,1.79,1.43,1.83,2,2.82,3.18a5.29,5.29,0,0,1,1.47,2.41c0,.45-.59.67-1.78.67H335.34v20l11.81-2.77.54,2L332,488.3a67.76,67.76,0,0,0-8.81,4.12,9.18,9.18,0,0,1-2.24,1.25.66.66,0,0,1-.49-.18q-.18-.18-1.74-2.46t-3-4.78q7.69-1.35,12.34-2.24V462.27h-6.44a10.69,10.69,0,0,0-3.75.63l-1.61-4.3a19.37,19.37,0,0,0,4.47.45h7.33Zm27.11,33.72v30.33a1.94,1.94,0,0,1-.27,1.16,5.48,5.48,0,0,1-1.47,1,12.72,12.72,0,0,1-2.87,1.12,10.68,10.68,0,0,1-2.23.45c-.39,0-.59-.18-.59-.54l.27-4.92q.18-2.87.18-6.8V473.19c0-2.93-.06-5.52-.18-7.79,3.94,1.26,6.53,2.33,7.79,3.22h5.63a57,57,0,0,0,2.6-9.12H352.25a14.43,14.43,0,0,0-3.85.45l-1.52-3.85a19.37,19.37,0,0,0,4.47.45h34.44l2.69-4a1.79,1.79,0,0,1,1.47-.8q.85,0,4.56,3.08t3.72,3.89c0,.54-.81.81-2.42.81h-24l-5.55,9.12h18.25l2.15-2.77a1.17,1.17,0,0,1,1-.45,8.13,8.13,0,0,1,2.73,1.21c1.4.81,2.79,1.64,4.16,2.51s2.06,1.47,2.06,1.83c0,.54-1.2,1.4-3.58,2.59v24.34a7.28,7.28,0,0,1-1.08,4.38q-1.06,1.42-4.74,3.26c-2.44,1.22-4,1.84-4.69,1.84s-1-.36-1-1.08a5,5,0,0,0-1.88-3.93c-1.19-1-3.67-1.91-7.42-2.87l.18-2.14a55.94,55.94,0,0,0,9.25,1.52,5.35,5.35,0,0,0,3.09-.63,3.19,3.19,0,0,0,.8-2.59v-23.8H380v11.72l.18,8.95a2.19,2.19,0,0,1-.23,1.2,5.53,5.53,0,0,1-1.34,1,7.12,7.12,0,0,1-2.73,1,17.07,17.07,0,0,1-2.05.27q-.45,0-.45-1.35V471.84h-6v23.08a1.49,1.49,0,0,1-.45,1.25,14.89,14.89,0,0,1-2.91,1.26,13.63,13.63,0,0,1-3.09.89c-.41,0-.62-.24-.62-.71l.18-4.21q.18-4.38.18-8v-13.6Zm12-25.4V431q0-6.61-.18-8,10.28,2.33,10.28,3.58c0,.54-1,1.31-3,2.33v17.53h10.38V434q0-3.39-.09-4.74,2.33.45,5.46,1.39a24.26,24.26,0,0,1,4,1.43c.56.33.85.67.85,1,0,.66-1,1.28-2.87,1.88V445.1l.09,4.29c0,.78-.89,1.48-2.68,2.1a13.64,13.64,0,0,1-4.2.94c-.36,0-.54-.3-.54-.89v-2.33H356.81l-1,2.15a1.25,1.25,0,0,1-1.21.71,8.68,8.68,0,0,1-2.86-.85,18.8,18.8,0,0,1-4.52-2.9,9.13,9.13,0,0,0,2.23-1.79,3.22,3.22,0,0,0,.45-1.88v-8.41q0-4.83-.18-6.8,9.39,2.15,9.4,3.67c0,.54-.78,1.13-2.33,1.79v11.54Z" transform="translate(-83.54 -354.86)"/></g></svg>