<svg id="图层_2" data-name="图层 2" xmlns="http://www.w3.org/2000/svg" viewBox="0 0 200 200"><title>gunmayhem_logo</title><path d="M113.81,129.15v-16.8l-27.49.35v16.45H70.92V98.86c0-.16-.38-11.8,7.35-19.94,5-5.22,12.16-7.93,21.43-8h.57c9.12,0,16.28,2.58,21.28,7.66,7.74,7.87,7.65,19.16,7.65,19.27v31.35ZM100.06,81.84c-10.87,0-13.74,8.29-13.74,12.67V101h27.49V93.92c0-.17-.7-12.06-13.75-12.08Z"/><path d="M100.27,71.87c8.83,0,15.74,2.47,20.54,7.33,7.44,7.54,7.39,18.48,7.39,18.62v30.33H114.81V111.34l-2,0-25.49.33-2,0v16.44H71.92V98.78c0-.11-.35-11.37,7.08-19.18,4.77-5,11.74-7.61,20.71-7.72h.56M85.32,102h29.49V93.83c-.21-4.49-3.56-13-14.75-13-11.66,0-14.74,8.94-14.74,13.67V102m15-32.14h-.59c-31,.37-29.76,29-29.76,29v31.29h17.4V113.69l25.49-.33v16.79H130.2V97.82s.45-27.95-29.93-27.95ZM87.32,100v-5.5c0-.19.06-11.67,12.74-11.67,12.24,0,12.75,11.08,12.75,11.08V100Z"/><polygon points="176.35 64.86 149.69 29.38 149.44 64.86 134.82 64.86 135.55 6.56 147.41 6.59 176.59 43.02 176.85 6.56 193.08 6.59 193.08 64.86 176.35 64.86"/><path d="M177.84,7.56l14.24,0V63.86H176.85L152.26,31.14l-3.55-4.73,0,5.92-.22,31.53H135.84l.7-56.3,10.39,0,27.12,33.86,3.52,4.39,0-5.63.23-32.65m-2-2-.25,34.64L147.89,5.59l-13.33,0-.75,60.3h16.62l.24-33.52,25.19,33.52h18.22V5.59l-18.22,0Z"/><polygon points="49.59 193.44 49.59 169.91 21.79 169.49 21.79 193.44 6.55 193.44 6.55 70.88 17.98 70.88 35.69 89.77 53.4 70.88 64.83 70.88 64.83 129.15 49.38 129.15 49.31 88.01 35.53 106.17 21.13 86.66 21.79 134.18 21.79 156.5 49.59 156.61 49.59 135.17 64.83 135.17 64.83 193.44 49.59 193.44"/><path d="M63.83,71.88v56.27H50.38L50.32,91V85l-3.59,4.72L35.54,104.5,23.78,88.57l-3.7-5,.09,6.22.62,44.38v23.32h2l25.8.11h2V136.17H63.83v56.27H50.59V168.92l-2,0-25.8-.39-2,0v24H7.55V71.88h10l16.69,17.8,1.46,1.55,1.46-1.55,16.69-17.8h10m2-2H53L35.69,88.31,18.41,69.88H5.55V194.44H22.79V170.5l25.8.39v23.55H65.83V134.17H48.59v21.44l-25.8-.11V134.17l-.62-44.41,13.35,18.08L48.32,91l.06,39.18H65.83V69.88Z"/><polygon points="6.55 6.56 64.5 6.59 64.5 18.54 22.49 18.58 22.49 51.15 51.17 51.22 51.27 39.56 44.96 39.46 45 31.37 64.5 31.21 64.5 64.86 6.55 64.86 6.55 6.56"/><path d="M7.55,7.56l56,0v10l-40,0h-2V52.15h2l26.69.06h2v-2l.09-9.67,0-2-2,0L46,38.48l0-6.11,17.51-.15V63.86H7.55V7.56m-2-2v60.3h60V30.21L44,30.38l0,10.07,6.31.09-.09,9.67-26.68-.06V19.58l42,0V5.59l-59.95,0Z"/><polygon points="156.22 129.15 156.43 104.51 134.78 104.7 134.97 70.88 149.43 70.88 149.43 93.19 177.02 93.39 177.11 70.88 193.24 70.88 193.05 104.13 171.6 104.33 171.6 129.15 156.22 129.15"/><path d="M148.43,71.88v22.3h2l25.59.2h2v-2l.08-20.51h14.13l-.17,31.26-19.47.19h-2v24.81H157.23l.19-22.62,0-2-2,0-19.63.18L136,71.88h12.47m45.81-2H176.11L176,92.39l-25.59-.2V69.88H134l-.2,35.83,21.65-.19-.2,24.63h17.39V105.33l21.44-.2.19-35.25Z"/><polygon points="180.92 193.44 180.85 147.38 169.91 147.38 170.32 193.44 158.65 193.44 158.24 147.25 147.94 147.25 147.94 193.44 135.29 193.44 135.29 135.16 193.57 135.16 193.57 193.44 180.92 193.44"/><path d="M192.57,136.16v56.28H181.92l-.07-44.06v-2H168.9l0,2,.39,44h-9.67l-.39-44.21,0-2H146.94v46.19H136.3V136.16h56.27m2-2H134.3v60.28h14.64V148.25h8.31l.4,46.19h13.68l-.41-46.06h8.93l.07,46.06h14.65V134.16Z"/><polygon points="70.92 193.44 70.92 135.16 129.2 135.16 129.2 147.81 83.14 147.88 83.14 158.82 129.2 158.41 129.2 170.09 83.01 170.5 83.01 180.79 129.2 180.79 129.2 193.44 70.92 193.44"/><path d="M128.2,136.17v10.64l-44.07.07h-2v13l2,0,44-.39v9.68L84,169.49H82v12.29H128.2v10.65H71.92V136.17H128.2m2-2H69.92v60.27H130.2V179.79H84v-8.3l46.19-.41V157.41l-46.06.41v-8.94l46.06-.07V134.17Z"/><path d="M99.75,64.87c-9.1,0-16.25-2.57-21.25-7.64C70.77,49.38,70.84,38.06,70.84,38V6.59H86.23V41.82c0,.17.71,12.07,13.75,12.08,4.25,0,7.63-1.23,10-3.65a13.77,13.77,0,0,0,3.7-9V6.59h15.39v30.3c0,.16.39,11.79-7.34,19.93-5,5.23-12.17,7.93-21.43,8Z"/><path d="M114.72,5.59h0m-42.88,2H85.23V41.92c.21,4.49,3.56,13,14.76,13,4.52,0,8.13-1.33,10.74-3.94a14.87,14.87,0,0,0,4-9.72V7.59h13.39V37c0,.11.35,11.36-7.08,19.18-4.76,5-11.73,7.61-20.7,7.71h-.58c-8.82,0-15.72-2.47-20.52-7.33C71.79,49,71.84,38.07,71.84,37.93V7.59m-2-2V37.93s-.45,27.94,29.91,27.94h.6c31-.37,29.76-29,29.76-29V5.59H112.72V41.24s0,11.66-12.73,11.66h0c-12.24,0-12.75-11.08-12.75-11.08V5.59Zm60.27,0h0Z"/></svg>