<svg id="图层_1" data-name="图层 1" xmlns="http://www.w3.org/2000/svg" viewBox="0 0 300 300"><defs><style>.cls-1{fill:#102b72;}.cls-2{fill:#987c4d;}</style></defs><title>smu</title><polygon class="cls-1" points="182.33 169.38 151.53 141.17 151.53 141.17 151.53 141.17 151.48 141.17 151.48 141.17 120.62 169.38 151.48 159.43 151.53 159.43 182.33 169.38"/><polygon class="cls-1" points="151.53 141.12 161.68 113.22 184.38 110.47 151.53 141.12"/><polygon class="cls-1" points="207.29 119.57 184.38 110.47 183.73 72.96 207.29 119.57"/><polygon class="cls-1" points="189.33 56.06 212.24 56.06 183.73 73.01 189.33 56.06"/><polygon class="cls-2" points="151.48 141.12 141.33 113.22 118.62 110.47 151.48 141.12"/><polygon class="cls-2" points="95.72 119.57 118.62 110.47 119.27 72.96 95.72 119.57"/><polygon class="cls-2" points="113.67 56.06 90.77 56.06 119.27 73.01 113.67 56.06"/><path class="cls-2" d="M230,0c-20.45,19.25-34.51,10.8-41.71,9.25A36.91,36.91,0,0,0,174.58,6.8c-12.5,0-22.6,5.3-22.6,11.9,0,2.35,1.35,4.6,3.6,6.4a23.61,23.61,0,0,1,10.3-5h0a50.43,50.43,0,0,1,20.75.9c.8.2,1.65.45,2.55.7h0a21.24,21.24,0,0,0,2.85.7,8.48,8.48,0,0,0,1.1.2c23.16,5.15,37.06-6.5,37.06-6.5Z"/><path class="cls-1" d="M149.43,202.33s-12.9-.05-19.21-3.1c-11.45-5.5-13.6-22.45-15-36.45-.15-1.55-10.8-4.91-15.85-9.56-8.25-7.55-6.95-31-6.95-32.5S79,112.67,79,98.12c0-6.16.1-40.51.1-40.51-8.7-10.8-14.21-11-21.16-8.8-8.6,2.75-11.1,9.1-20.05,10.4,0,1.95-.1,104.42-.1,104.42,0,31.55,5.8,53.35,38.16,77.61,30,22.5,53.2,21.95,73.46,58.76C149.78,300.65,149.53,202.33,149.43,202.33Z"/></svg>