<svg id="图层_1" data-name="图层 1" xmlns="http://www.w3.org/2000/svg" viewBox="0 0 192.4 300"><defs><style>.cls-1{fill:#102b72;}.cls-2{fill:#987c4d;}</style></defs><title>smu</title><polygon class="cls-1" points="144.54 169.38 113.74 141.17 113.74 141.17 113.74 141.17 113.69 141.17 113.69 141.17 82.83 169.38 113.69 159.43 113.74 159.43 144.54 169.38"/><polygon class="cls-1" points="113.74 141.12 123.89 113.22 146.59 110.47 113.74 141.12"/><polygon class="cls-1" points="169.5 119.57 146.59 110.47 145.94 72.96 169.5 119.57"/><polygon class="cls-1" points="151.54 56.06 174.45 56.06 145.94 73.01 151.54 56.06"/><polygon class="cls-2" points="113.69 141.12 103.54 113.22 80.83 110.47 113.69 141.12"/><polygon class="cls-2" points="57.93 119.57 80.83 110.47 81.48 72.96 57.93 119.57"/><polygon class="cls-2" points="75.88 56.06 52.98 56.06 81.48 73.01 75.88 56.06"/><path class="cls-2" d="M230,0c-20.45,19.25-34.51,10.8-41.71,9.25A36.91,36.91,0,0,0,174.58,6.8c-12.5,0-22.6,5.3-22.6,11.9,0,2.35,1.35,4.6,3.6,6.4a23.61,23.61,0,0,1,10.3-5h0a50.42,50.42,0,0,1,20.75.9c.8.2,1.65.45,2.55.7h0a21.54,21.54,0,0,0,2.85.7,8.18,8.18,0,0,0,1.1.2c23.16,5.15,37.06-6.5,37.06-6.5Z" transform="translate(-37.79)"/><path class="cls-1" d="M149.43,202.33s-12.9-.05-19.21-3.1c-11.45-5.5-13.6-22.45-15-36.45-.15-1.55-10.8-4.91-15.85-9.56-8.25-7.55-7-31-7-32.5S79,112.67,79,98.12c0-6.16.1-40.51.1-40.51-8.7-10.8-14.21-11-21.16-8.8-8.6,2.75-11.1,9.1-20,10.4,0,1.95-.1,104.42-.1,104.42,0,31.55,5.8,53.35,38.16,77.61,30,22.5,53.2,21.95,73.46,58.76C149.78,300.65,149.53,202.33,149.43,202.33Z" transform="translate(-37.79)"/></svg>