<svg xmlns="http://www.w3.org/2000/svg" viewBox="0 0 300 300"><defs><style>.cls-1{fill:#3070b3;}.cls-2{fill:#fff;}</style></defs><g id="图层_2" data-name="图层 2"><rect class="cls-1" width="300" height="300"/></g><g id="图层_1" data-name="图层 1"><path id="path6" class="cls-2" d="M127.42,42.8v83.73H149V42.8H249V145.44H230.06V61.7H208.45v83.74h-18.9V61.7H167.94v83.74H108.51V61.7H89.6v83.74H70.7V61.7H51.79V42.8Z" transform="translate(-0.43 -0.45)"/><path class="cls-2" d="M53.18,182.4V163.31H46.36v-3.89H64.62v3.89h-6.8V182.4Z" transform="translate(-0.43 -0.45)"/><path class="cls-2" d="M67.61,182.4v-23h17v3.89H72.25v5.09H83.79v3.87H72.25v6.26H85.09v3.87Z" transform="translate(-0.43 -0.45)"/><path class="cls-2" d="M103.73,174l4.49,1.43a10,10,0,0,1-3.44,5.58,10.8,10.8,0,0,1-13.62-1.3q-3-3.12-3-8.55,0-5.73,3-8.91A10.18,10.18,0,0,1,99,159a9.57,9.57,0,0,1,6.85,2.49,9.06,9.06,0,0,1,2.35,4.23l-4.59,1.1A4.76,4.76,0,0,0,98.73,163a5.24,5.24,0,0,0-4.15,1.84Q93,166.66,93,170.77q0,4.35,1.57,6.2a5.05,5.05,0,0,0,4.07,1.85,4.65,4.65,0,0,0,3.18-1.17A6.84,6.84,0,0,0,103.73,174Z" transform="translate(-0.43 -0.45)"/><path class="cls-2" d="M112.22,182.4v-23h4.64v9H126v-9h4.64v23H126V172.35h-9.09V182.4Z" transform="translate(-0.43 -0.45)"/><path class="cls-2" d="M135.43,182.4v-23H140l9.4,15.34V159.42h4.31v23H149l-9.26-15v15Z" transform="translate(-0.43 -0.45)"/><path class="cls-2" d="M158.42,182.4v-23h4.64v23Z" transform="translate(-0.43 -0.45)"/><path class="cls-2" d="M166.31,174.92l4.51-.44a5.44,5.44,0,0,0,1.66,3.34,5,5,0,0,0,3.36,1.07,5.15,5.15,0,0,0,3.37-.95,2.81,2.81,0,0,0,1.14-2.22,2.1,2.1,0,0,0-.48-1.39,3.79,3.79,0,0,0-1.67-1c-.54-.19-1.78-.52-3.71-1a12.55,12.55,0,0,1-5.24-2.27,6,6,0,0,1-2.11-4.62,5.9,5.9,0,0,1,1-3.28,6.24,6.24,0,0,1,2.87-2.33,11.38,11.38,0,0,1,4.52-.8q4.33,0,6.52,1.9a6.69,6.69,0,0,1,2.29,5.06l-4.64.2a4,4,0,0,0-1.27-2.55,4.75,4.75,0,0,0-2.94-.77,5.33,5.33,0,0,0-3.17.83,1.67,1.67,0,0,0-.74,1.43,1.76,1.76,0,0,0,.69,1.39,12.42,12.42,0,0,0,4.27,1.54,22.36,22.36,0,0,1,5,1.65,6.44,6.44,0,0,1,2.54,2.33,6.87,6.87,0,0,1,.92,3.67,6.69,6.69,0,0,1-1.1,3.69,6.56,6.56,0,0,1-3.1,2.57,13,13,0,0,1-5,.83q-4.35,0-6.69-2A8.73,8.73,0,0,1,166.31,174.92Z" transform="translate(-0.43 -0.45)"/><path class="cls-2" d="M203.59,174l4.5,1.43a10,10,0,0,1-3.44,5.58,9.79,9.79,0,0,1-6.1,1.83,9.89,9.89,0,0,1-7.53-3.13q-2.94-3.12-2.94-8.55,0-5.73,3-8.91a10.17,10.17,0,0,1,7.79-3.17,9.57,9.57,0,0,1,6.85,2.49,9.06,9.06,0,0,1,2.35,4.23l-4.59,1.1a4.76,4.76,0,0,0-4.85-3.86,5.23,5.23,0,0,0-4.14,1.84q-1.59,1.83-1.59,5.94,0,4.35,1.57,6.2a5.05,5.05,0,0,0,4.07,1.85,4.66,4.66,0,0,0,3.18-1.17A6.77,6.77,0,0,0,203.59,174Z" transform="translate(-0.43 -0.45)"/><path class="cls-2" d="M212.09,182.4v-23h4.64v9h9.09v-9h4.64v23h-4.64V172.35h-9.09V182.4Z" transform="translate(-0.43 -0.45)"/><path class="cls-2" d="M235.25,182.4v-23h17v3.89h-12.4v5.09h11.54v3.87H239.89v6.26h12.84v3.87Z" transform="translate(-0.43 -0.45)"/><path class="cls-2" d="M45.3,197.94h4.64v12.44a24.65,24.65,0,0,0,.18,3.84,3.72,3.72,0,0,0,1.41,2.27,5,5,0,0,0,3.07.85,4.75,4.75,0,0,0,3-.8,3.2,3.2,0,0,0,1.2-2,25,25,0,0,0,.21-3.9V197.94h4.64V210a30.91,30.91,0,0,1-.38,5.84,6.45,6.45,0,0,1-1.39,2.89,6.93,6.93,0,0,1-2.7,1.87,11.66,11.66,0,0,1-4.42.7,12.81,12.81,0,0,1-5-.76,7.15,7.15,0,0,1-2.69-2,6.35,6.35,0,0,1-1.3-2.54,28.06,28.06,0,0,1-.46-5.83Z" transform="translate(-0.43 -0.45)"/><path class="cls-2" d="M68.56,220.92v-23h4.52l9.4,15.34V197.94h4.31v23H82.14l-9.27-15v15Z" transform="translate(-0.43 -0.45)"/><path class="cls-2" d="M91.56,220.92v-23h4.63v23Z" transform="translate(-0.43 -0.45)"/><path class="cls-2" d="M106.48,220.92l-8.22-23h5l5.82,17,5.63-17h4.92l-8.23,23Z" transform="translate(-0.43 -0.45)"/><path class="cls-2" d="M122,220.92v-23h17v3.89h-12.4v5.09H138.2v3.87H126.66V217H139.5v3.88Z" transform="translate(-0.43 -0.45)"/><path class="cls-2" d="M143.45,220.92v-23h9.76a16.85,16.85,0,0,1,5.36.62,5.3,5.3,0,0,1,2.67,2.2,6.61,6.61,0,0,1,1,3.62,6.15,6.15,0,0,1-1.52,4.27,7.3,7.3,0,0,1-4.55,2.13,10.5,10.5,0,0,1,2.49,1.92,27.07,27.07,0,0,1,2.64,3.73l2.81,4.49h-5.55l-3.36-5a31.5,31.5,0,0,0-2.44-3.38,3.52,3.52,0,0,0-1.4-1,7.7,7.7,0,0,0-2.33-.26h-.94v9.6Zm4.64-13.26h3.43a17.4,17.4,0,0,0,4.17-.29,2.45,2.45,0,0,0,1.3-1,3,3,0,0,0,.47-1.72,2.76,2.76,0,0,0-.62-1.87,2.83,2.83,0,0,0-1.75-.91c-.37-.05-1.5-.07-3.38-.07h-3.62Z" transform="translate(-0.43 -0.45)"/><path class="cls-2" d="M165.44,213.44,170,213a5.44,5.44,0,0,0,1.66,3.34,5,5,0,0,0,3.36,1.07,5.15,5.15,0,0,0,3.37-.95,2.81,2.81,0,0,0,1.14-2.22,2.1,2.1,0,0,0-.48-1.39,3.79,3.79,0,0,0-1.67-1c-.54-.19-1.78-.53-3.71-1a12.55,12.55,0,0,1-5.24-2.27,6.05,6.05,0,0,1-1.12-7.91,6.29,6.29,0,0,1,2.87-2.32,11.38,11.38,0,0,1,4.52-.8q4.33,0,6.52,1.89a6.73,6.73,0,0,1,2.29,5.07l-4.64.2a4,4,0,0,0-1.27-2.55,4.75,4.75,0,0,0-2.94-.77,5.26,5.26,0,0,0-3.17.83,1.67,1.67,0,0,0-.74,1.42,1.77,1.77,0,0,0,.69,1.4,12.42,12.42,0,0,0,4.27,1.54,22.36,22.36,0,0,1,5,1.65,6.44,6.44,0,0,1,2.54,2.33,6.86,6.86,0,0,1,.92,3.66,6.78,6.78,0,0,1-1.1,3.7,6.56,6.56,0,0,1-3.1,2.57,13.19,13.19,0,0,1-5,.83q-4.35,0-6.69-2A8.73,8.73,0,0,1,165.44,213.44Z" transform="translate(-0.43 -0.45)"/><path class="cls-2" d="M187.88,220.92v-23h4.64v23Z" transform="translate(-0.43 -0.45)"/><path class="cls-2" d="M202.11,220.92V201.83h-6.82v-3.89h18.26v3.89h-6.8v19.09Z" transform="translate(-0.43 -0.45)"/><path class="cls-2" d="M237.27,220.92h-5.05l-2-5.22H221l-1.9,5.22h-4.92l8.95-23h4.91Zm-17.05-24.3v-3.77H224v3.77Zm8.51,15.21-3.17-8.53-3.1,8.53ZM227,196.62v-3.77h3.79v3.77Z" transform="translate(-0.43 -0.45)"/><path class="cls-2" d="M244.9,220.92V201.83h-6.82v-3.89h18.26v3.89h-6.8v19.09Z" transform="translate(-0.43 -0.45)"/><path class="cls-2" d="M70.25,259.43v-23h6.94l4.17,15.67,4.12-15.67h7v23H88.13V241.35l-4.56,18.08H79.1l-4.54-18.08v18.08Z" transform="translate(-0.43 -0.45)"/><path class="cls-2" d="M97,236.46h4.64V248.9a25.13,25.13,0,0,0,.17,3.84,3.73,3.73,0,0,0,1.42,2.27,4.92,4.92,0,0,0,3.06.85,4.67,4.67,0,0,0,3-.81,3.22,3.22,0,0,0,1.21-2,26.71,26.71,0,0,0,.2-3.9V236.46h4.64v12.07a31,31,0,0,1-.38,5.84,6.46,6.46,0,0,1-1.38,2.88,7.07,7.07,0,0,1-2.71,1.88,11.86,11.86,0,0,1-4.42.7,12.84,12.84,0,0,1-5-.76,7.23,7.23,0,0,1-2.69-2,6.32,6.32,0,0,1-1.3-2.55,28.13,28.13,0,0,1-.45-5.83Zm4-1.32v-3.78h3.77v3.78Zm6.74,0v-3.78h3.79v3.78Z" transform="translate(-0.43 -0.45)"/><path class="cls-2" d="M120.28,259.43v-23h4.51l9.4,15.34V236.46h4.31v23h-4.65l-9.26-15v15Z" transform="translate(-0.43 -0.45)"/><path class="cls-2" d="M158.11,251l4.5,1.42a10.12,10.12,0,0,1-3.44,5.59,10.82,10.82,0,0,1-13.63-1.3c-2-2.09-2.95-4.94-2.95-8.55,0-3.82,1-6.8,3-8.91a10.13,10.13,0,0,1,7.79-3.17,9.57,9.57,0,0,1,6.85,2.49,9.15,9.15,0,0,1,2.35,4.23l-4.6,1.1a4.82,4.82,0,0,0-1.7-2.83,4.92,4.92,0,0,0-3.14-1,5.23,5.23,0,0,0-4.14,1.83c-1.07,1.23-1.59,3.21-1.59,5.94q0,4.37,1.56,6.21a5.12,5.12,0,0,0,4.08,1.85,4.63,4.63,0,0,0,3.18-1.18A6.8,6.8,0,0,0,158.11,251Z" transform="translate(-0.43 -0.45)"/><path class="cls-2" d="M166.61,259.43v-23h4.64v9h9.08v-9H185v23h-4.64v-10h-9.08v10Z" transform="translate(-0.43 -0.45)"/><path class="cls-2" d="M189.77,259.43v-23h17v3.88h-12.4v5.1H206v3.87H194.41v6.25h12.84v3.87Z" transform="translate(-0.43 -0.45)"/><path class="cls-2" d="M211.23,259.43v-23h4.51l9.4,15.34V236.46h4.32v23H224.8l-9.26-15v15Z" transform="translate(-0.43 -0.45)"/></g></svg>